<mxfile host="app.diagrams.net" agent="Mozilla/5.0 (Windows NT 10.0; Win64; x64) AppleWebKit/537.36 (KHTML, like Gecko) Chrome/138.0.0.0 Safari/537.36" version="28.0.7">
  <diagram name="第 1 页" id="lYSCccjF1Dvj0ZZ6_NC8">
    <mxGraphModel dx="2066" dy="1103" grid="1" gridSize="10" guides="1" tooltips="1" connect="1" arrows="1" fold="1" page="1" pageScale="1" pageWidth="827" pageHeight="1169" math="0" shadow="0">
      <root>
        <mxCell id="0" />
        <mxCell id="1" parent="0" />
        <mxCell id="u4dJC3-XnGfmM-rWfLHY-2" value="" style="shape=image;verticalLabelPosition=bottom;labelBackgroundColor=default;verticalAlign=top;aspect=fixed;imageAspect=0;image=data:image/png,iVBORw0KGgoAAAANSUhEUgAAAMgAAADICAYAAACtWK6eAAAAAXNSR0IArs4c6QAAFupJREFUeF7tXQuYHFWV/k/1zCQsCi5BQJOAXT1ZESLKAprXdM2EYFgFAYXwyUvWF6t+ugg+wF0f6K4Cq6KgEaPoKiz6BZAF5fkh3dUJD934IIpRM12dkARFAmtcJZCZrrPcniSEZGbqVtXt6qquU9+XbybT/zn3nP/cv+t2130Q5BIGhIEJGSDhRhgQBiZmQAQivUMYmIQBEYh0D2FABCJ9QBiIxoDcQaLxJlY5YUAEkpNCS5rRGBCBRONNrHLCgAgkJ4WWNKMxIAKJxptY5YQBEUhOCi1pRmNABBKNN7HKCQMikJwUWtKMxoAIJBpvYpUTBkQgOSm0pBmNARFINN7EKicMiEByUmhJMxoDIpBovIlVThgQgeSk0JJmNAZEINF4E6ucMCACyUmhJc1oDIhAovEmVjlhQASSk0JLmtEYEIFE402scsKACCQnhZY0ozEgAonGm1jlhAERSE4KLWlGY0AEEo03scoJAyKQnBRa0ozGgAgkGm/RrWprXwy2joFF09Dk/UE0DeD9AYz97mMzLHocPm8G/M0oFB5Hkzejr3cl5s3cGr1hsYzCgAgkCmthbZQofOs0WHQaGINhzXfiGXeC8EOAa3BKv4zsRwy1GRCBaFMVAbjCOxs+nwTQGwH0RvAwmcnPAXIxwt/CInu1Yd/ibjsDIpB2dIXK8Omw6H0AzW+H+918bgXzVejruxLzZm5KoL1cNSECMVnuFfVFaNL7QTjRpFstX8ybYFlXoqfnKvmsosWYFkgEokVTAKgyPBuFwoVgPteEu1g+CKvRxH9gyL4ulh8xbjEgAonbESprB2EVrgFgx3Vl1J79z2Cw/1+M+syhMxFInKLX1r0Z7N8Yx0V7ben7cIpvbm8b3e1dBBK1vpX6RbDos1HNE7RbA8c+LMH2uqopEUiUctYad4D5+CimHbNxbKl1BPKFtLCk1RrXg/ktYc06jiesRNke6HgcGQtABBKmYDXvcjA+FMYkXVi6FE7x4nTFlO5oRCC69XEb5wF8tS48vTg6H07xS+mNL12RiUB06lFdNwTy7wAwRQeeegzjHAza16Y+zhQEKALRKYLbWAXwUTrQbGD4cfT0zsX8g+vZiLdzUYpAgrh3G+8C+GtBsOy9zkvhlN6bvbiTjVgEEsR31909dknYbw5haFY1iII8vy4Cmaz6XXv32Jn0rXDsk/IsgKDcRSCTC6TLPnuMkyzhbJRlYuNE3UAEMhEz3X/32JH5j+HYc4LeSfP6ughkQoF4/w0gH8OPQmE2FhzycF5FMFneIpDx2LlnzTT0TXkUjL5cdBriC1AuXZGLXEMmKQIZj7DUT2MPWeUgOOE2lO0TgmB5fF0EMl7VXe8bAN6eow7xDB5btTeWLGnmKGetVEUg4wvkSQB/q8Vg14D4DXBKt3dNOoYSEYHsTuTYEtqKIX4z5IYvhVOSmb67VUwEsnsXbu1lhe9kqGebCvW/4NhnmXLWLX5EILtX0vXURgf/1i0FDpHHCjh2OQQ+F1ARyB4CqV8N0Hm5qP7zk1wHxy7mMO9JUxaB7CGQxm0Avz6HHcWHYxdymLcIJFTRXU9tCj07lE23gEdHZuDYl8v2pbvUU+4ge34G+ROAfbulz4fKo0BzsaD4YCibLgeLQPYUyBYA+3R53cdPjwqHo3zIr3OZ+wRJi0B2J6bW+BWYD89lJ5nS3BdzZv05l7mLQDTL7np3Alisie4m2J/h2PkcWk5SRbmD7DnEyts8rDEGiB5GuZjPLydEICHe6Cv1T8KiT4Sw6BboXXDsbG2nmgDzcgfZ8w6iZvGqu0jermvg2O/IW9JB+YpA9vyQvhjM6nNIvi6fL8FQ6ZP5Sjo4WxHIeBy5njpueWowfV2EKOBQLLB/20UZGUlFBDIejbXGV8H8T0YYzoaTn8CxX5uNUJONUgQyHt/V4SGQdW+ypehga+x/BIP9l3cwgtQ2LQKZqDSutwbAoamtnNHAphwMZ/oGoy67xJkIZGKBqDUhOTgEk26GU3xTl/Rn42mIQCaidGVjDpr8gHHG0+fwrXDsPK6g1KqECGQymqr160GUvePWtErfOgTcRdke1IXnEScCmazq93qvQgErALywKzsH0SkoF9UOknJNwIAIJKhrdOsadaLvolw8Iyj9vL8uAgnqARXugdVYCaCbnhP4IMxF2f5JUPp5f10EotMDqsOngKzv60Azgvk8HPuDGYm1o2GKQHTpdxvXAPw2XXiKcWvgN1+HoVkbUxxjakITgeiW4v4Ne2FkRH2gfZ2uSQpx69D0T8XC/p+mMLZUhiQCCVOWysYZsLapodYxYcxSgWU8hgKfioGS+jwllyYDIhBNonbCVnivQpNvAlEprGkH8WojiiVw7Ls7GEMmmxaBRCmbu24hiG8A835RzJO14W0gfwnKs25Jtt3uaE0EErWOVe80EJZHNU/QTlYKxiBbBBKFvErjIFisxDEQxTx5GzoPTnFZ8u1mv0URSJQa1rx/B+OjUUw7ZPM7WFiCAfuhDrWf2WZFIGFLV2kcD4tvztySXMZ1GLTPDptu3vEikDA94K6H9sbUFywHKJu7vxPeh7L95TAp5x0rAgnTA9z6RQB9VsvEKpwIv/kuACdq4SOB+HEwvgGivQG8P9AFY31rqCVzsAKp2gEQgehSde/wfBQKPwA4+HBP5gsxWPrCTtc171QwzjEjFn4cwA1o0jIs3OUzheupTadfoZHOcjj26Ro4gbSWzMilx4DrfQ9AcMciVFG2h8Z1uvI3L8Ro71kgOhxE0+H7M1o/gZfsgWf8FRY2gmkTmDfBoo1ojt6NoVnVcX3X1h8Lbt6jlww+CMf+vCY21zARiE75V6x7D3z/KzpQNPHq572z6xgxW7jHm4HewnT00J8x4m/CUFGdUxLuqtYvA9GHNYx+jyadgoXFH2tgcw0RgQSV393wSmDkrnHf5fe0/Rgcu7MHgLrezwAcGZTWs5hb4Ngna+ByDRGBBJW/5i0D451BMADp2Hyttn4+uKk3IZH4oyiX9L500CCgGyEikMmqGurMdH8+nP77U9FJqvVLQPRxjVieRJNeL0OtiZkSgUzETaXxMlisdlfUOBqZLoVTvFijQyYHcT0l1rnBDfIdcErZfK4TnFxshAhkIgqr3pVQD9aCr1Vw7PStD6munQsq6N3RZGf3CassAhmPmlrjZHBrOknwZfFxGCjpfr0a7M8kwm1cBLDOZ4y/oEmLZKi1J/kikN05uWfjNPRuU3thBT90Y1yFQTv4CbbJTh/Wl1u/F6Dxn8vs6ovwI5TtRWHddzteBLJ7hWuNy8Cs8SyBf4Z7v3MMLrnET3UnkaFWrPKIQHalr1Y/Fkx6wyWik1EuZmOVXq3xATA/N/Vloi5D2IZRKstQ6zmCRCA7uFj+cB8O/JsHAP57jbecpXDs92rg0gOp1m8H0T8EBsRYiUE7IwvBArOJDRCB7KCwVr8ErPXs4OfwX1DG0AF/ic1+kg5aQy2rBlBPYLPyrdZOikQgioqa9xowNOcl8ZlwStcHdrI0AnSHWir2Js2RoZbM5h3rxm7jPoDnBfdpvhpO6d3BuBQj3MZNAAcfmEP4Mcr2nBRnkkhocgep1i8G0WcC2WY8hKlYjDn2Y4HYNAPGhlp3A/SCwDBlqJXR9SBqXUVz6v4g/8UY9Zuggpoe/ofAgu8OuO+R2Rgd/aWeHZ0Lp/htPWzKUaaHWvdvmI6nR2eg4E8fW+fCY+tcCNPB/ASAzQBtbv1eoM3w+QlMoZ9m4c0m3XeQSmMqenAKmq0hQT8I+wOtf+OdYa6eR2wC8CiYHwW1FhqtAVvXT7i2wq3/CKCFwd2Zvwan1F3HQrue2rbotMDcJxpq1RqLAT4LjLMCfUwIoPsBvhmWX8FAOvcLTp9A7t+wH7ZtOwlEbwBwAoAp0Quw3VKt8mP/e3D6v7bTV7X+ARAFPxsAVsMqnIKBQ7zYcaTJwdhQ61aA1BvO5NeOodaK4aPgW2qdvfpn+loNcAUj9E0sslebdh7VX3oEUvOOAPN7AGuJ1rrvqBmrIoC+2FowpHMxvw2DpW/pQDOHCTPUSi65rWC+Cn19V2LeTDUi6OjVeYFUhvtBhfeAlDgM3C1M0sn4Ogbtdrxbmowyni/doVa8VsJbt9bhW1eip+cqzJu5NbwDMxadE8jKR16K5qgShfoXvFOImXzDePlV627mvGxNGKPMYceGWmqvrxmpjJ2wGoTPYcC+thPxdUYg7vA8sPVNEF7eiaT12uS3wyl9Uw+bcVQ6h1rPJ5XoCpSLFyTNdPICWbH+BPjNHySdaKj2CN9A2dZZhx7KbarBaR1q7UraZFsqtYncZAXiNt4K8H+2KRczbokebg2tyoeojdjyc1W9j4HwqQwkvAW9vUdj3szhJGJNTiBVbxlIa3eQJPIOauN/4NMSDBXXBQG74vUsDLF2J3q02Y9jZ9XbzX8yAqnWb4ZaP5Gli8hFs+9UDE3fnKWwQ8fqNt4F8HPPh0I76JjBKMrFKc/u3tLWBWvtF4jrfRrAv3aMxlgN0x3o7XlzJ79mjBV+kHHFOwsWOvLtUFBoeq/zzXBKwRMv9ZyNi2qvQNzG6QCrPW2zezFuxKAdPCUjaxlWvQEQalkLe494CR9H2VZvwm252ieQyvBsWFZl+9yptgSfoNPu2+zZ9e4EsDhBDtvXVBtnO7RPIK6njhw+rn2sJOr5KVi0EANdstlzrXE+mK9IlMG2NsaPo6d3LuYfbPxDe3sEksVvRYILeDccO/vvuO66VwBNtfQ2eJJiMCcpQvBSOCXj+wSYF0hl4wxYzzyQ2qkLcUra5vFunNC0bWvetfGmqGu3lDzQbw5NeH5KxGjMC6Ra/wKIPhAxnvSbUeHwzD5EdL3XPbtfrzrKoVuvW+HYJ5lMzqxAwmxSZjKLJH1leRmq610H4Mwk6Uq8LcLZKNsqTyOXWYFkYT5PXNrUVJRycXZcN4nbu+uOBHx1uE63X0bPaTEnkBXeq+DjF93Ofis/xhIM2jdkKle3cQXA52cq5qjBNv0FWNh/X1TzXe3MCaQ6/H6Q9SUTQWXAxw1w7CUZiHMsRHd4JmCpN6/9MhNzrED5UjglI+e1GBRIBudbxSrClIPhTN8Qy0VSxm79bQBdk1RzKWjnl3DsI0zEYUYgd/1hb0zdugXggomgMuGD6C0oF7MxjcatXw3QeZng1VSQPXQk5hdjD/nNCKRWfwOYfmgqt4z4+TIcW+cEqs6nU/MeBOO1nQ8kwQgYn8agrXNO46RBmRGI27ga4Hy9QwE/h2Pr7ASfYK8Ypyn3N0Wg72EAe3U2kIRbJ9yHsr0gbquGBOKpjZ9fEzeYzNlzcx4GZz2Q6rjd+psAuinVMbYnuN/BsWPveWBKIGqSmN2ePFPslegC+M1fgHoIftNCLxF8slq/k/odYz+tpgX0ENi3QBjDqJ+0/afvW+Adf1OYAsFnC7zdnnwLsAjMz9lbu/xNbULest/uX/2+42+qTYs+kWIW2xXak3DsaXGdmxLInwDsGzcYsRcGjDLw2KoeLFnSjOMzvkBWrerFX/fbFicIsRUG2sLACA7Coni78ccXSO3XLwFPfbQtCYpTYSAOA4XCbCw4RH1BEfmKL5CxlYOaRwhEjlMMhYHwDBiY/m5AIGsHYRXU0lq5hIF0MeD7r8RQ/6/iBBVfICvXH45mM1YQcRIQW2FgQgbo6ZeifNjv4zAUXyD3eAeiF+FPd4oTtdgKAzoM7P1kH44+ekQHOhEmvkCWLy/gwKNH4wQhtsJAGxjYAsd+UVy/8QWiInA9dQ5dTqZS70K5Wl1Ilg9itbsft3b5Y59bfwMzGD6YGZblQ/1vJ87y0Wxux23/u3qd2d9pqx4zKlvlY4c/9Tfl1y/4sHi7b/Yxoh4pTvA38tV0mM/F7SgZtPfg2KW4cZsSyG8B/F3cYDJof9Kz87FuTXXcldx+iWJkZaEZgdS8lWDMT3VHMR/cU8CUQ1O/JmTsQa76EiVnb2B8DZzSO+KW3YxAsrN1fly+nrMnrETZHjDnsI2eqvXrodav5OkinIayfWPclM0IpLb2MHAh1hPLuIl0wP5KOPY/d6Dd8E26ntpQ7cvhDTNr4aOw7UVYcOj/xc3AjEDGPqj/BMAxcQPKjj2dC6f47UzE2zpBGA9lIlYzQRrbBdOcQGr1i8H0GTP5pd7LFlh8BAZKj6Q+0h0Bup7aME5tHNf9F9NHMFi83ESi5gRy7/BRKFirTASVeh9EX0W5qE7nzc7l1s8EyNiGaqlOvOkfjYX9PzURozmBjA2zHgRysPbZ5wEMlVaaKECiPlxPbRx3ZKJtJt+Y0S2ZzAqk5p0FzvKJRVrVvA2OfYIWMm2gWv18MHXRsQfjEGx4GbRZgYzdRW4B8Ma09Q1z8fCZcErXm/OXoKf7N+yHkRG1Fc7MBFtNril15slgyehZ6uYF0t1PblfAscvJVbwNLbnehd059YQ3wp8yF0MzNppkzbxAWneR+lcAytaHWB1WiY5HuZj94wO66/SvscqpDTTKRePDx/YI5L5HShgdUYfovFin32UDw1+EU+qOc0+67S5P+CHK9ont6EftEYiKtNZ4N5iXtiPoDvhcA39KuavOTHcbnwX4og5wabZJwno0+xaYHlrtCLJ9AmmJxFsGxjvNMtIBbz7OxpC5Q1k6kMGeTa78zQsx2lcD4dWpiCdqEIa/tdo9jPYKZOzzyCqAjoqaf8ftsnyiVBB5tfWHAf5yMB8eBE3l6wmc09J+gVQqPbAOeQaA2u0vYxd9Ek7xkowFHS7crIqEcC3K9jnhkg2Pbr9AVExZPH2qm+8cu/eTrImE+WYMlt4UvruHt0hGICquSuMgEP8ChAPDh5mwRZ7EsYNaJRJuqkN25iTMdtjmEl1mkJxAdtBQ9b4OQuyVXmFZ1cQ/DeYLMVjqlm/fNNPeDltV3xdPWVeA+R/DGSaEJr4A5ZLxZx2TRZ+8QFQ01caHQXxZQrTqNqNmIl8Ix67pGnQtruZ9CAwj08UNcTSMJp+PhaXbDPnTdtMZgajw3PoZIOujKfkG5dsY6bsQi2ao3Vnkan1uXH8C/KZ6t+7vICH/C2ApCj1LseDgjuz/3DmBKNYfXLsPtloXwCL1hHqf5AtBas3AMjjFZcm3nYEWH/QOxDacA+ZzAErybPhnwLQU3FyKof7hTjLVWYE8/wOimoX59mTIEGGE4lltDnjQMWeDfSWUoVC2YcCMJ0B8I4iWomyvDmPaLmw6BLJTKI3FYD4DwKJn39lfajxpxoMg+pbcMWIwWxk+Hj0FBz4PGvrG62kQfRfMd2JvvgtHl7bEiM64aboEsmt6Ve84EBYDOA5AtDOvmTcBdAeIq/Ct+zBUXGecwTw7rK17CRgLQXwsmGcDfCBABwCYOi4thKfA/ARAmwGsbQnjL6N34PWz1IPkVF7pFciudFXWzoBlHQGLpqHJ+4NoGsD7P7uVzdjvjD8C+GPrJ/l/BBUewzb2sCgdt+lUVr6dQd2+dh/sRQfA6lFi2Qr0bsYWPIE3Tn+qnc22w3c2BNKOzMWnMKDBgAhEgySB5JcBEUh+ay+ZazAgAtEgSSD5ZUAEkt/aS+YaDIhANEgSSH4ZEIHkt/aSuQYDIhANkgSSXwZEIPmtvWSuwYAIRIMkgeSXARFIfmsvmWswIALRIEkg+WVABJLf2kvmGgyIQDRIEkh+GRCB5Lf2krkGAyIQDZIEkl8GRCD5rb1krsGACESDJIHklwERSH5rL5lrMCAC0SBJIPllQASS39pL5hoMiEA0SBJIfhkQgeS39pK5BgMiEA2SBJJfBkQg+a29ZK7BgAhEgySB5JcBEUh+ay+ZazAgAtEgSSD5ZUAEkt/aS+YaDPw/59DvFBFIcowAAAAASUVORK5CYII=;" parent="1" vertex="1">
          <mxGeometry x="170" y="235" width="90" height="90" as="geometry" />
        </mxCell>
        <mxCell id="u4dJC3-XnGfmM-rWfLHY-4" value="F5硬负载实例 * 1, 用户访问唯一入口, ip 为 10.0.24.1" style="text;html=1;align=left;verticalAlign=middle;whiteSpace=wrap;rounded=0;" parent="1" vertex="1">
          <mxGeometry x="290" y="265" width="318" height="30" as="geometry" />
        </mxCell>
        <mxCell id="u4dJC3-XnGfmM-rWfLHY-8" value="" style="image;html=1;image=img/lib/clip_art/computers/Server_128x128.png" parent="1" vertex="1">
          <mxGeometry x="180" y="365" width="80" height="80" as="geometry" />
        </mxCell>
        <mxCell id="u4dJC3-XnGfmM-rWfLHY-9" value="服务器n台, 自由规划部署服务" style="text;html=1;align=left;verticalAlign=middle;whiteSpace=wrap;rounded=0;" parent="1" vertex="1">
          <mxGeometry x="290" y="390" width="318" height="30" as="geometry" />
        </mxCell>
        <mxCell id="u4dJC3-XnGfmM-rWfLHY-10" value="&lt;h1 style=&quot;margin-top: 0px;&quot;&gt;域名2个&lt;/h1&gt;&lt;p&gt;&lt;span style=&quot;color: rgb(255, 106, 0); text-align: center; text-wrap-mode: nowrap; background-color: rgb(255, 255, 255);&quot;&gt;&lt;font style=&quot;font-size: 16px;&quot;&gt;https://a.xx.cn&lt;/font&gt;&lt;/span&gt;&lt;/p&gt;&lt;p&gt;&lt;span style=&quot;color: rgb(255, 106, 0); text-align: center; text-wrap-mode: nowrap; background-color: rgb(255, 255, 255);&quot;&gt;&lt;span style=&quot;color: rgb(255, 229, 153);&quot;&gt;&lt;font style=&quot;font-size: 16px;&quot;&gt;https://b.xx.cn&lt;/font&gt;&lt;/span&gt;&lt;/span&gt;&lt;/p&gt;" style="text;html=1;whiteSpace=wrap;overflow=hidden;rounded=0;" parent="1" vertex="1">
          <mxGeometry x="170" y="120" width="176" height="105" as="geometry" />
        </mxCell>
        <mxCell id="u4dJC3-XnGfmM-rWfLHY-11" value="&lt;b&gt;&lt;font style=&quot;font-size: 17px;&quot;&gt;需求: 有两个应用，用户需要在浏览器访问这两个应用，但是网络入口只有一个F5硬负载实例，请简述部署方案，&lt;/font&gt;&lt;/b&gt;" style="text;html=1;align=left;verticalAlign=middle;whiteSpace=wrap;rounded=0;" parent="1" vertex="1">
          <mxGeometry x="10" y="40" width="710" height="60" as="geometry" />
        </mxCell>
      </root>
    </mxGraphModel>
  </diagram>
</mxfile>
